<?xml version="1.0" encoding="UTF-8" standalone="no"?>
<!-- Generator: Fusion 360, Shaper Origin Export Add-In, Version 1.7.0  -->

<svg
   shaper:fusionaddin="version:1.7.0"
   width="4.2694174cm"
   height="3.1170623cm"
   version="1.1"
   x="0cm"
   y="0cm"
   viewBox="0 0 4.2694174 3.1170623"
   enable-background="new 0 0 4.2694174 3.1170623"
   xml:space="preserve"
   id="svg6"
   sodipodi:docname="logo.svg"
   inkscape:version="1.3.2 (091e20e, 2023-11-25)"
   xmlns:inkscape="http://www.inkscape.org/namespaces/inkscape"
   xmlns:sodipodi="http://sodipodi.sourceforge.net/DTD/sodipodi-0.dtd"
   xmlns="http://www.w3.org/2000/svg"
   xmlns:svg="http://www.w3.org/2000/svg"
   xmlns:shaper="http://www.shapertools.com/namespaces/shaper"><defs
     id="defs6" /><sodipodi:namedview
     id="namedview6"
     pagecolor="#ffffff"
     bordercolor="#000000"
     borderopacity="0.25"
     inkscape:showpageshadow="2"
     inkscape:pageopacity="0.0"
     inkscape:pagecheckerboard="0"
     inkscape:deskcolor="#d1d1d1"
     inkscape:document-units="cm"
     inkscape:zoom="2.0032216"
     inkscape:cx="80.620137"
     inkscape:cy="59.653909"
     inkscape:window-width="1312"
     inkscape:window-height="894"
     inkscape:window-x="0"
     inkscape:window-y="39"
     inkscape:window-maximized="0"
     inkscape:current-layer="svg6" /><path
     d="M1.75,-0 L2.5723611,-0 2.5723611,1.8089148 1.2642136,3.1170623 0,1.8528488 0.106066,1.7467828 1.2642136,2.9049303 2.4223611,1.7467828 2.4223611,0.15 1.75,0.15 1.75,-0z"
     transform="matrix(1,0,0,-1,0,3.1170623)"
     stroke="rgb(100,100,100)"
     stroke-width="0.0010cm"
     stroke-linecap="round"
     stroke-linejoin="round"
     fill="none"
     id="path1"
     style="fill:#fdfdfd;fill-opacity:1;stroke:none" /><path
     d="M2.6784271,2.8342196 L2.7844931,2.7281536 2.9612698,2.9049303 4.1194174,1.7467828 4.1194174,0.15 3.4208892,0.15 3.4208892,1.8089148 2.1127417,3.1170623 2.0066757,3.0109963 3.2708892,1.7467828 3.2708892,-0 4.2694174,-0 4.2694174,1.8089148 2.9612698,3.1170623 2.6784271,2.8342196z"
     transform="matrix(1,0,0,-1,0,3.1170623)"
     stroke="rgb(100,100,100)"
     stroke-width="0.0010cm"
     stroke-linecap="round"
     stroke-linejoin="round"
     fill="none"
     id="path2"
     style="fill:#ffffff;fill-opacity:1;stroke:none" /><path
     d="M-0,1.45 L-0,1.325 A1.325,1.325 90 0,0 1.325,0 L1.45,-0 A1.45,1.45 0 0,1 -0,1.45z"
     transform="matrix(1,0,0,-1,0,3.1170623)"
     stroke="rgb(100,100,100)"
     stroke-width="0.0010cm"
     stroke-linecap="round"
     stroke-linejoin="round"
     fill="none"
     id="path3"
     style="fill:#ffffff;fill-opacity:1;stroke:none" /><path
     d="M-0,1.025 L-0,0.9 A0.9,0.9 90 0,0 0.9,0 L1.025,-0 A1.025,1.025 0 0,1 -0,1.025z"
     transform="matrix(1,0,0,-1,0,3.1170623)"
     stroke="rgb(100,100,100)"
     stroke-width="0.0010cm"
     stroke-linecap="round"
     stroke-linejoin="round"
     fill="none"
     id="path4"
     style="fill:#ffffff;fill-opacity:1;stroke:none" /><path
     d="M-0,0.6 L0,0.475 A0.475,0.475 90 0,0 0.475,-0 L0.6,0 A0.6,0.6 0 0,1 -0,0.6z"
     transform="matrix(1,0,0,-1,0,3.1170623)"
     stroke="rgb(100,100,100)"
     stroke-width="0.0010cm"
     stroke-linecap="round"
     stroke-linejoin="round"
     fill="none"
     id="path5"
     style="fill:#ffffff;fill-opacity:1;stroke:none" /><path
     d="M-0,0.175 L0,0 0.175,0 A0.175,0.175 0 0,1 0,0.175z"
     transform="matrix(1,0,0,-1,0,3.1170623)"
     stroke="rgb(100,100,100)"
     stroke-width="0.0010cm"
     stroke-linecap="round"
     stroke-linejoin="round"
     fill="none"
     id="path6"
     style="fill:#ffffff;fill-opacity:1;stroke:none" /></svg>
